<svg xmlns="http://www.w3.org/2000/svg" width="24" height="24" fill="none"><path fill="#FEC13B" d="M7.5 11a1 1 0 1 0 0 2h1a1 1 0 1 0 0-2h-1zm7 1a1 1 0 0 1 1-1h1a1 1 0 1 1 0 2h-1a1 1 0 0 1-1-1z"/><path fill="#FEC13B" fill-rule="evenodd" d="M3 2a1 1 0 0 0 0 2h1v1H3a1 1 0 0 0-1 1v2a2 2 0 0 0 1.5 1.937V21a1 1 0 0 0 1 1H10a1 1 0 0 0 1-1v-6c0-.186.07-.464.23-.671.129-.168.34-.329.77-.329s.641.161.77.329c.16.207.23.485.23.671v6a1 1 0 0 0 1 1h5.5a1 1 0 0 0 1-1V9.937A2 2 0 0 0 22 8V6a1 1 0 0 0-1-1h-1V4h1a1 1 0 1 0 0-2H3zm15.5 8v4h-3.67a3.102 3.102 0 0 0-.475-.891C13.86 12.464 13.07 12 12 12s-1.859.464-2.355 1.109A3.1 3.1 0 0 0 9.17 14H5.5v-4h13zm-13 6v1H9v-1H5.5zM9 19H5.5v1H9v-1zm6-3v1h3.5v-1H15zm3.5 3H15v1h3.5v-1zM20 8V7H4v1h16zm-2-4H6v1h12V4z" clip-rule="evenodd"/></svg>